<?xml version="1.0" encoding="utf-8"?>
<!-- Generator: Adobe Illustrator 17.0.2, SVG Export Plug-In . SVG Version: 6.00 Build 0)  -->
<!DOCTYPE svg PUBLIC "-//W3C//DTD SVG 1.1 Tiny//EN" "http://www.w3.org/Graphics/SVG/1.1/DTD/svg11-tiny.dtd">
<svg version="1.1" baseProfile="tiny" id="Layer_1" xmlns="http://www.w3.org/2000/svg" xmlns:xlink="http://www.w3.org/1999/xlink"
	 x="0px" y="0px" width="128px" height="128px" viewBox="0 0 128 128" xml:space="preserve">
<g>
	<rect fill="#4E3525" width="128" height="128"/>
	<g>
		<path fill="#FFFFFF" d="M48.617,46.865c3.464,1.897,6.103,4.353,7.915,7.366c1.749,2.872,2.913,6.223,3.497,10.052
			c0.517,2.625,0.777,6.808,0.777,12.552H22.744c0.162,5.796,1.406,10.445,3.733,13.947c2.327,3.502,5.93,5.253,10.81,5.253
			c4.557,0,8.194-1.656,10.908-4.969c1.52-1.923,2.596-4.149,3.23-6.679h8.648c-0.228,2.093-0.986,4.424-2.272,6.994
			c-1.287,2.572-2.723,4.672-4.306,6.302c-2.651,2.837-5.933,4.751-9.844,5.744c-2.102,0.566-4.477,0.851-7.128,0.851
			c-6.474,0-11.96-2.579-16.46-7.738c-4.5-5.159-6.749-12.383-6.749-21.673c0-9.148,2.266-16.575,6.798-22.285
			c4.532-5.708,10.456-8.563,17.773-8.563C41.576,44.019,45.152,44.969,48.617,46.865z M51.767,69.229
			c-0.355-4.148-1.179-7.463-2.471-9.946c-2.39-4.609-6.379-6.914-11.967-6.914c-4.005,0-7.364,1.588-10.077,4.76
			c-2.713,3.174-4.151,7.207-4.312,12.1H51.767z"/>
		<path fill="#FFFFFF" d="M71.946,23.862h8.795v29.146c2.084-2.872,3.958-4.893,5.619-6.063c2.834-2.021,6.368-3.032,10.603-3.032
			c7.589,0,12.735,2.891,15.44,8.669c1.466,3.157,2.199,7.535,2.199,13.137v36.538h-9.039v-35.9c0-4.183-0.489-7.25-1.466-9.201
			c-1.596-3.119-4.593-4.68-8.99-4.68c-3.649,0-6.955,1.366-9.919,4.095c-2.965,2.731-4.446,7.89-4.446,15.477v30.209h-8.795V23.862
			z"/>
	</g>
	<rect y="0" fill="#467537" width="128" height="23.862"/>
</g>
</svg>
